<svg version="1.1" id="Layer_1" xmlns="http://www.w3.org/2000/svg" xmlns:xlink="http://www.w3.org/1999/xlink" x="0px" y="0px"
	 width="100%" viewBox="0 0 89 95" enable-background="new 0 0 89 95" xml:space="preserve">
<path fill="#000000" opacity="1.000000" stroke="none" 
	d="
M57.000000,96.000000 
	C38.000004,96.000000 19.500006,96.000000 1.000007,96.000000 
	C1.000005,64.333344 1.000005,32.666683 1.000003,1.000020 
	C30.666651,1.000013 60.333302,1.000013 89.999969,1.000007 
	C89.999977,32.666645 89.999977,64.333290 89.999985,95.999969 
	C79.166664,96.000000 68.333336,96.000000 57.000000,96.000000 
M58.064541,65.569649 
	C60.822918,70.649498 63.472534,75.794044 66.425377,80.758217 
	C67.066933,81.836777 68.787666,82.808899 70.025787,82.826721 
	C71.006523,82.840851 72.393120,81.515205 72.938217,80.447021 
	C75.818253,74.803146 78.488831,69.052399 81.232048,63.338711 
	C81.523575,63.392048 81.815102,63.445389 82.106628,63.498726 
	C82.106628,73.647629 82.106628,83.796532 82.106628,94.096794 
	C84.385216,93.967072 86.127029,93.867905 87.703133,93.778183 
	C87.703133,80.603210 87.703133,67.866096 87.703133,55.093109 
	C84.761581,55.093109 82.117592,55.093109 79.373337,55.093109 
	C76.283035,61.491814 73.210297,67.854164 69.896751,74.715096 
	C67.355721,69.695038 64.737350,65.560547 63.122074,61.065586 
	C61.148296,55.572971 57.825397,53.798950 52.327339,55.354347 
	C52.327339,68.199539 52.327339,81.064964 52.327339,94.087067 
	C54.411118,93.968521 56.146946,93.869774 58.004032,93.764130 
	C58.004032,84.349884 58.004032,75.374084 58.064541,65.569649 
M29.997389,39.711746 
	C28.284954,44.308804 29.693310,49.625172 33.259838,52.027088 
	C38.768837,55.737183 45.954189,54.727943 51.332237,50.415985 
	C56.010941,51.641106 59.652901,52.594753 63.294865,53.548405 
	C63.450768,53.067684 63.606674,52.586960 63.762577,52.106239 
	C62.330341,50.732479 61.099022,48.999687 59.422909,48.061741 
	C56.204182,46.260551 54.741753,44.598450 56.827957,40.674099 
	C58.071609,38.334667 57.707726,35.140659 58.078754,32.234879 
	C55.760586,32.234879 54.017456,32.234879 51.902512,32.234879 
	C51.902512,35.169353 51.902512,37.879566 51.902512,41.136013 
	C49.080929,38.193371 46.722855,35.734131 44.432034,33.345024 
	C50.153118,31.898899 51.820988,24.840595 49.940907,20.759712 
	C48.180435,16.938450 39.412037,15.382447 34.832409,18.034037 
	C30.036905,20.810617 29.718220,26.256329 33.789864,33.107666 
	C32.485916,35.114048 31.253372,37.010567 29.997389,39.711746 
M24.000368,25.406492 
	C24.000368,17.993011 24.000368,10.579533 24.000368,3.263923 
	C18.632202,3.263923 13.875509,3.263923 9.276537,3.263923 
	C9.276537,4.611796 9.276537,5.692174 9.276537,7.155307 
	C11.951561,7.155307 14.357060,7.155307 17.000090,7.155307 
	C17.000090,15.833488 17.006653,24.124962 16.997915,32.416416 
	C16.991482,38.520050 16.530180,38.980511 10.505517,38.998871 
	C8.399086,39.005291 6.292620,38.999897 4.262866,38.999897 
	C4.262866,40.939583 4.262866,42.340832 4.262866,43.999298 
	C7.823161,43.999298 11.127754,44.083828 14.426310,43.978783 
	C18.971889,43.834026 21.700512,40.911888 22.827747,37.018173 
	C23.805607,33.640434 23.653223,29.935488 24.000368,25.406492 
z"/>
<path fill="#FFFFFF" opacity="1.000000" stroke="none" 
	d="
M58.034286,65.983963 
	C58.004032,75.374084 58.004032,84.349884 58.004032,93.764130 
	C56.146946,93.869774 54.411118,93.968521 52.327339,94.087067 
	C52.327339,81.064964 52.327339,68.199539 52.327339,55.354347 
	C57.825397,53.798950 61.148296,55.572971 63.122074,61.065586 
	C64.737350,65.560547 67.355721,69.695038 69.896751,74.715096 
	C73.210297,67.854164 76.283035,61.491814 79.373337,55.093109 
	C82.117592,55.093109 84.761581,55.093109 87.703133,55.093109 
	C87.703133,67.866096 87.703133,80.603210 87.703133,93.778183 
	C86.127029,93.867905 84.385216,93.967072 82.106628,94.096794 
	C82.106628,83.796532 82.106628,73.647629 82.106628,63.498726 
	C81.815102,63.445389 81.523575,63.392048 81.232048,63.338711 
	C78.488831,69.052399 75.818253,74.803146 72.938217,80.447021 
	C72.393120,81.515205 71.006523,82.840851 70.025787,82.826721 
	C68.787666,82.808899 67.066933,81.836777 66.425377,80.758217 
	C63.472534,75.794044 60.822918,70.649498 58.034286,65.983963 
z"/>
<path fill="#FFFFFF" opacity="1.000000" stroke="none" 
	d="
M30.009109,39.309418 
	C31.253372,37.010567 32.485916,35.114048 33.789864,33.107666 
	C29.718220,26.256329 30.036905,20.810617 34.832409,18.034037 
	C39.412037,15.382447 48.180435,16.938450 49.940907,20.759712 
	C51.820988,24.840595 50.153118,31.898899 44.432034,33.345024 
	C46.722855,35.734131 49.080929,38.193371 51.902512,41.136013 
	C51.902512,37.879566 51.902512,35.169353 51.902512,32.234879 
	C54.017456,32.234879 55.760586,32.234879 58.078754,32.234879 
	C57.707726,35.140659 58.071609,38.334667 56.827957,40.674099 
	C54.741753,44.598450 56.204182,46.260551 59.422909,48.061741 
	C61.099022,48.999687 62.330341,50.732479 63.762577,52.106239 
	C63.606674,52.586960 63.450768,53.067684 63.294865,53.548405 
	C59.652901,52.594753 56.010941,51.641106 51.332237,50.415985 
	C45.954189,54.727943 38.768837,55.737183 33.259838,52.027088 
	C29.693310,49.625172 28.284954,44.308804 30.009109,39.309418 
M41.594177,48.999920 
	C44.175819,48.376320 46.757462,47.752720 49.339108,47.129120 
	C49.379269,46.521824 49.419434,45.914528 49.459599,45.307232 
	C46.554974,42.612999 43.724018,39.831268 40.696960,37.282452 
	C39.880322,36.594833 37.513115,36.250168 37.470638,36.361813 
	C36.518139,38.865116 34.788593,41.690659 35.322742,43.956234 
	C35.793514,45.952972 38.840591,47.342297 41.594177,48.999920 
M40.873001,30.336061 
	C42.248512,28.637604 44.148674,27.109869 44.780151,25.169296 
	C45.100121,24.185995 43.396908,21.741470 42.120583,21.265427 
	C40.821537,20.780907 37.825111,21.494228 37.489326,22.396564 
	C36.396732,25.332613 36.280186,28.557678 40.873001,30.336061 
z"/>
<path fill="#FFFFFF" opacity="1.000000" stroke="none" 
	d="
M24.000368,25.890823 
	C23.653223,29.935488 23.805607,33.640434 22.827747,37.018173 
	C21.700512,40.911888 18.971889,43.834026 14.426310,43.978783 
	C11.127754,44.083828 7.823161,43.999298 4.262866,43.999298 
	C4.262866,42.340832 4.262866,40.939583 4.262866,38.999897 
	C6.292620,38.999897 8.399086,39.005291 10.505517,38.998871 
	C16.530180,38.980511 16.991482,38.520050 16.997915,32.416416 
	C17.006653,24.124962 17.000090,15.833488 17.000090,7.155307 
	C14.357060,7.155307 11.951561,7.155307 9.276537,7.155307 
	C9.276537,5.692174 9.276537,4.611796 9.276537,3.263923 
	C13.875509,3.263923 18.632202,3.263923 24.000368,3.263923 
	C24.000368,10.579533 24.000368,17.993011 24.000368,25.890823 
z"/>
<path fill="#000000" opacity="1.000000" stroke="none" 
	d="
M41.172092,48.999886 
	C38.840591,47.342297 35.793514,45.952972 35.322742,43.956234 
	C34.788593,41.690659 36.518139,38.865116 37.470638,36.361813 
	C37.513115,36.250168 39.880322,36.594833 40.696960,37.282452 
	C43.724018,39.831268 46.554974,42.612999 49.459599,45.307232 
	C49.419434,45.914528 49.379269,46.521824 49.339108,47.129120 
	C46.757462,47.752720 44.175819,48.376320 41.172092,48.999886 
z"/>
<path fill="#000000" opacity="1.000000" stroke="none" 
	d="
M40.528206,30.176800 
	C36.280186,28.557678 36.396732,25.332613 37.489326,22.396564 
	C37.825111,21.494228 40.821537,20.780907 42.120583,21.265427 
	C43.396908,21.741470 45.100121,24.185995 44.780151,25.169296 
	C44.148674,27.109869 42.248512,28.637604 40.528206,30.176800 
z"/>
</svg>